<?xml version="1.0" encoding="UTF-8"?>
<!-- Generator: Adobe Illustrator 19.0.0, SVG Export Plug-In . SVG Version: 6.00 Build 0)  -->
<svg version="1.0" id="图层_1" xmlns="http://www.w3.org/2000/svg" xmlns:xlink="http://www.w3.org/1999/xlink" x="0px" y="0px" viewBox="0 0 160 44" style="enable-background:new 0 0 160 44;" xml:space="preserve">
<style type="text/css">
	.st0{fill:#E50012;}
	.st1{fill:#231815;}
	.st2{fill:#FFFFFF;}
</style>
<g id="XMLID_36_">
	<polygon id="XMLID_35_" class="st0" points="53.7,17.3 54.3,17.8 54.9,18.4 55,18.4 55,18.4 55.1,18.5 55.2,18.5 55.2,18.6    55.3,18.6 55.4,18.6 55.5,18.6 55.5,18.6 55.6,18.6 55.6,18.7 55.7,18.7 55.7,18.7 55.8,18.7 55.9,18.6 55.9,18.6 56,18.6    56.1,18.6 56.1,18.6 56.2,18.6 56.2,18.5 56.3,18.5 56.4,18.5 56.4,18.4 56.5,18.4 56.5,18.4 56.6,18.3 56.7,18.3 56.8,18.2    56.8,18.1 56.8,18 56.9,18 56.9,17.9 57,17.8 57,17.7 57,17.6 57.1,17.5 57.1,17.4 57.1,17.4 57.1,17.2 57.1,17.1 57.1,17    57.1,16.8 57.1,16.7 57,16.6 57,16.4 56.9,16.3 56.8,16.2 56.7,16 56.5,15.9 56.4,15.8 56.2,15.6 56.1,15.5 55.9,15.4 55.7,15.3    55.5,15.1 55.3,15 55.2,14.9 55.1,14.9 54.9,14.7 54.8,14.6 54.6,14.5 54.4,14.4 54.3,14.3 54.3,14.3 54.2,14.2 54.1,14.2    53.9,14.1 53.9,14 53.8,14 53.9,14 53.9,13.9 54,13.8 54.1,13.6 54.2,13.5 54.2,13.4 54.3,13.4 54.3,13.3 54.4,13.3 54.4,13.2    54.5,13 54.6,13 54.6,12.9 54.7,12.8 54.8,12.7 54.8,12.6 54.9,12.6 54.9,12.4 55,12.4 55,12.3 55.1,12.2 55.1,12.2 55.2,12.1    55.2,12 55.3,12 55.4,11.9 55.4,11.8 55.4,11.7 55.5,11.7 55.5,11.6 55.5,11.6 55.6,11.5 55.7,11.3 55.7,11.2 55.8,11.1 55.9,11    55.9,10.9 56,10.8 56.1,10.7 56.1,10.6 56.2,10.5 56.3,10.4 56.3,10.3 56.4,10.2 56.4,10.1 56.5,10 56.5,10 56.6,9.8 56.6,9.8    56.7,9.7 56.7,9.6 56.8,9.5 56.8,9.4 56.8,9.3 56.9,9.2 56.9,9.1 56.9,9.1 57,9 57,8.9 57,8.8 57,8.8 57,8.7 57.1,8.6 57.1,8.5    57.1,8.4 57.1,8.4 57.1,8.3 57.1,8.2 57.1,8.1 57.1,8.1 57.1,8 57.1,7.9 57.1,7.8 57.1,7.7 57,7.7 57,7.6 57,7.5 57,7.4 56.9,7.4    56.9,7.3 56.9,7.2 56.8,7.1 56.7,7 56.7,7 56.6,6.9 56.5,6.8 56.4,6.8 56.3,6.8 56.2,6.7 56.1,6.7 56,6.6 55.9,6.6 55.7,6.6    55.6,6.6 55.5,6.6 55.2,6.6 54.3,6.6 49.3,6.6 49.3,6.6 49.2,6.6 49.1,6.6 49.1,6.6 49,6.7 49,6.7 48.9,6.7 48.8,6.7 48.8,6.8    48.7,6.8 48.6,6.8 48.6,6.9 48.5,6.9 48.5,6.9 48.4,7 48.4,7 48.3,7 48.2,7.1 48.2,7.1 48.2,7.2 48.1,7.2 48.1,7.3 48,7.4 48,7.4    48,7.5 47.9,7.5 47.9,7.6 47.9,7.7 47.9,7.7 47.9,7.8 47.9,7.8 47.8,7.9 47.8,8.1 47.8,8.2 47.9,8.3 47.9,8.4 47.9,8.5 48,8.7    48,8.8 48.1,8.9 48.2,9 48.3,9 48.4,9.1 48.5,9.2 48.7,9.2 48.8,9.2 48.9,9.2 49,9.3 53.1,9.3 53.2,9.3 53.3,9.3 53.3,9.3    53.4,9.3 53.5,9.3 53.5,9.3 53.6,9.3 53.6,9.3 53.6,9.3 53.6,9.3 53.6,9.4 53.6,9.4 53.6,9.4 53.6,9.5 53.6,9.5 53.6,9.5 53.6,9.5    53.6,9.6 53.6,9.6 53.5,9.6 53.5,9.7 53.5,9.7 53.5,9.8 53.4,9.9 53.4,10 53.3,10 53.3,10.1 53.2,10.2 53.2,10.2 53.1,10.3    53,10.4 53,10.5 52.9,10.6 52.9,10.7 52.8,10.8 52.7,10.9 52.6,11 52.6,11.1 52.5,11.2 52.4,11.3 52.4,11.4 52.3,11.5 52.2,11.6    52.2,11.7 52.1,11.9 52,11.9 52,12 52,12 51.9,12.1 51.9,12.1 51.8,12.2 51.8,12.2 51.7,12.3 51.7,12.4 51.7,12.4 51.6,12.5    51.6,12.6 51.5,12.6 51.4,12.7 51.4,12.8 51.3,12.8 51.3,12.9 51.2,13 51.1,13 51.1,13.1 51,13.2 51,13.3 50.9,13.3 50.8,13.4    50.7,13.5 50.7,13.6 50.6,13.6 50.5,13.8 50.5,13.8 50.4,13.9 50.3,14 50.2,14.1 50.1,14.1 50,14.2 50,14.3 49.9,14.4 49.8,14.5    49.7,14.6 49.7,14.7 49.6,14.7 49.5,14.8 49.4,14.9 49.3,15 49.2,15.1 49.2,15.1 49.1,15.2 49,15.3 48.9,15.4 48.8,15.5 48.7,15.5    48.7,15.6 48.6,15.7 48.5,15.8 48.4,15.9 48.3,15.9 48.2,16 48.2,16.1 48.1,16.2 48,16.2 47.9,16.3 47.8,16.4 47.7,16.5 47.7,16.6    47.6,16.6 47.4,16.8 47.2,16.9 47.1,17.1 46.9,17.2 46.8,17.4 46.7,17.5 46.6,17.6 46.5,17.7 46.4,17.8 46.3,17.9 46.2,18    46.2,18.1 46.1,18.2 46.1,18.3 46,18.4 46,18.5 46,18.6 46,18.7 46,18.7 46,18.8 46,18.9 46,18.9 46,19 46,19.1 46.1,19.1    46.1,19.2 46.1,19.3 46.1,19.3 46.2,19.4 46.2,19.4 46.2,19.5 46.3,19.6 46.3,19.7 46.4,19.7 46.5,19.8 46.6,19.8 46.7,19.9    46.7,19.9 46.8,19.9 46.9,19.9 47,20 47.1,20 47.2,19.9 47.3,19.9 47.4,19.9 47.5,19.9 47.6,19.9 47.7,19.8 47.8,19.8 47.9,19.7    48,19.7 48.1,19.6 48.2,19.6 48.3,19.5 48.4,19.4 48.5,19.3 48.6,19.2 48.7,19.2 48.8,19.1 49,19 49.1,18.9 49.2,18.7 49.3,18.6    49.4,18.5 49.4,18.4 49.5,18.3 49.7,18.2 49.8,18.1 49.9,18 50,17.9 50.1,17.7 50.2,17.6 50.3,17.5 50.4,17.4 48.9,27 48.9,27.1    48.9,27.3 48.9,27.4 49,27.5 49,27.6 49.1,27.7 49.1,27.9 49.2,28 49.3,28 49.3,28.1 49.4,28.1 49.4,28.1 49.5,28.2 49.5,28.2    49.6,28.2 49.7,28.3 49.7,28.3 49.8,28.3 49.8,28.3 49.9,28.3 50,28.3 50,28.3 50.1,28.3 50.2,28.3 50.3,28.3 50.3,28.3 50.4,28.3    50.5,28.3 50.5,28.3 50.6,28.3 50.7,28.3 50.7,28.2 50.8,28.2 50.9,28.2 50.9,28.2 51,28.1 51,28.1 51.1,28.1 51.1,28 51.2,28    51.3,27.9 51.4,27.8 51.5,27.7 51.6,27.6 51.6,27.5 51.7,27.4 51.7,27.3 51.7,27.1 53.3,17  "/>
	<polygon id="XMLID_34_" class="st0" points="81.1,26.7 81.3,26.7 81.4,26.7 81.5,26.6 81.6,26.6 81.8,26.5 81.9,26.4 82,26.4    82.1,26.3 82.2,26.3 82.4,26.2 82.5,26.2 82.6,26.1 82.7,26.1 82.8,26 83,26 83.1,25.9 83.2,25.8 83.3,25.8 83.4,25.7 83.5,25.7    83.7,25.6 83.8,25.6 83.9,25.5 84,25.5 84.1,25.4 84.2,25.3 84.3,25.3 84.4,25.2 84.5,25.2 84.6,25.1 84.7,25 84.8,25 84.9,24.9    85,24.9 85.1,24.8 85.2,24.8 85.3,24.7 85.4,24.7 85.5,24.6 85.6,24.5 85.7,24.5 85.7,24.4 85.8,24.4 85.9,24.3 86,24.3 86.1,24.2    86.2,24.2 86.3,24.1 86.3,24.1 86.4,24 86.5,24 86.5,23.9 86.6,23.9 86.7,23.8 86.8,23.8 86.9,23.7 86.9,23.7 87,23.6 87.1,23.5    87.1,23.5 87.2,23.4 87.3,23.4 87.4,23.3 87.4,23.2 87.5,23.2 87.6,23.1 87.6,23.1 87.7,23 87.8,22.9 87.8,22.9 87.9,22.8 88,22.8    88.1,22.7 88.1,22.6 88.2,22.5 88.3,22.5 88.3,22.4 88.4,22.3 88.4,22.3 88.5,22.2 88.6,22.1 88.7,22 88.7,22 88.8,21.9 88.8,21.8    88.9,21.8 89,21.7 89,21.6 89.1,21.6 89.1,21.5 89.2,21.4 89.3,21.3 89.3,21.2 89.4,21.2 89.5,21.1 89.5,21 89.6,21 89.6,20.9    89.7,20.8 89.7,20.7 89.8,20.6 89.8,20.6 89.9,20.5 89.9,20.4 90,20.3 90,20.3 90.1,20.2 90.1,20.1 90.2,20 90.2,19.9 90.2,19.9    90.3,19.8 90.3,19.7 90.4,19.7 90.4,19.6 90.4,19.5 90.5,19.4 90.6,19.3 90.6,19.3 90.6,19.2 90.6,19.1 90.7,19.1 90.7,19 90.7,19    90.8,18.9 90.8,18.8 90.8,18.7 90.9,18.6 90.9,18.6 90.9,18.5 91,18.4 91,18.4 91,18.3 91.1,18.2 91.1,18.1 91.1,18.1 91.2,18    91.2,17.9 91.2,17.9 91.3,17.8 91.3,17.7 91.3,17.7 91.4,17.6 91.4,17.5 91.4,17.4 91.5,17.3 91.5,17.3 91.5,17.2 91.5,17.2    91.6,17 91.6,16.9 91.7,16.8 91.7,16.7 91.7,16.6 91.7,16.5 91.8,16.4 91.8,16.3 91.8,16.2 91.8,16.1 91.8,16 91.8,16 91.8,15.9    91.8,15.8 91.8,15.7 91.8,15.6 91.7,15.5 91.7,15.3 91.6,15.2 91.6,15.1 91.5,15 91.4,14.9 91.3,14.8 91.1,14.8 91,14.8 90.9,14.8    90.8,14.7 90.8,14.7 90.7,14.7 90.6,14.7 90.6,14.7 90.5,14.8 90.4,14.8 90.3,14.8 90.3,14.8 90.2,14.9 90.1,14.9 90,14.9 90,15    89.9,15.1 89.8,15.1 89.7,15.2 89.7,15.2 89.6,15.3 89.5,15.4 89.5,15.4 89.4,15.5 89.4,15.6 89.3,15.7 89.3,15.8 89.2,15.9    89.1,16 89.1,16.1 89,16.2 89,16.4 88.9,16.5 88.9,16.6 88.8,16.7 88.8,16.8 88.8,16.8 88.8,16.9 88.8,16.9 88.7,17 88.7,17.1    88.7,17.2 88.6,17.2 88.6,17.3 88.6,17.3 88.5,17.4 88.5,17.5 88.5,17.5 88.4,17.6 88.4,17.7 88.4,17.8 88.3,17.8 88.3,17.9    88.3,18 88.2,18 88.2,18.1 88.2,18.2 88.1,18.3 88.1,18.3 88,18.4 88,18.5 88,18.5 87.9,18.6 87.8,18.7 87.8,18.7 87.8,18.9    87.7,18.9 87.7,19 87.6,19.1 87.6,19.1 87.5,19.2 87.5,19.3 87.4,19.3 87.4,19.4 87.3,19.5 87.3,19.6 87.2,19.6 87.2,19.7    87.1,19.8 87.1,19.8 87,19.9 87,20 86.9,20 86.9,20.1 86.8,20.2 86.7,20.2 86.7,20.3 86.6,20.4 86.5,20.4 86.5,20.5 86.4,20.6    86.4,20.6 86.3,20.7 86.2,20.7 86.2,20.8 86.2,20.8 86.1,20.9 86.1,20.9 86,21 85.9,21.1 85.8,21.1 85.8,21.2 85.7,21.2 85.6,21.3    85.6,21.3 85.5,21.4 85.4,21.5 85.3,21.6 85.2,21.6 85.2,21.7 85.1,21.7 85,21.8 84.9,21.8 84.8,21.9 84.8,22 84.6,22 84.5,22.1    84.5,22.2 84.4,22.2 84.3,22.3 84.2,22.3 84,22.4 84,22.5 83.9,22.5 83.8,22.6 83.7,22.6 83.5,22.7 83.4,22.8 83.3,22.8 83.2,22.9    83.1,22.9 83,23 82.9,23.1 82.7,23.1 82.6,23.2 82.5,23.2 82.4,23.3 82.3,23.4 82.1,23.4 82,23.5 81.9,23.5 81.8,23.6 81.7,23.6    81.5,23.7 81.4,23.7 81.3,23.8 81.2,23.8 81.1,23.9 81,23.9 80.8,23.9 80.7,24 80.6,24.1 80.5,24.1 80.4,24.1 80.2,24.2 80.1,24.2    80,24.3 79.9,24.3 79.8,24.4 79.6,24.4 79.5,24.4 79.4,24.5 79.2,24.5 79.1,24.5 79,24.6 78.9,24.6 78.8,24.7 78.7,24.7 78.5,24.7    78.4,24.8 78.3,24.8 78.2,24.8 78.1,24.9 78,24.9 78,24.9 77.9,24.9 77.8,25 77.7,25 77.6,25 77.5,25 77.5,25.1 77.4,25.1    77.3,25.1 77.3,25.1 77.2,25.2 77.2,25.2 77.1,25.2 77,25.2 77,25.3 76.9,25.3 76.9,25.3 76.9,25.3 76.9,25.3 76.8,25.3 76.8,25.3    76.7,25.4 76.6,25.4 76.4,25.5 76.3,25.5 76.3,25.6 76.2,25.7 76.1,25.7 76,25.8 76,25.9 75.9,25.9 75.9,26 75.9,26 75.8,26.1    75.8,26.1 75.7,26.2 75.7,26.3 75.7,26.3 75.7,26.4 75.6,26.4 75.6,26.5 75.6,26.6 75.6,26.6 75.6,26.7 75.6,26.8 75.6,26.9    75.6,27 75.6,27.1 75.6,27.2 75.6,27.3 75.7,27.4 75.7,27.5 75.8,27.6 75.9,27.7 76,27.8 76.1,27.9 76.2,27.9 76.3,27.9 76.4,28    76.6,28 76.7,28 76.7,28 76.8,28 76.9,28 76.9,28 77,28 77,28 77.1,28 77.2,28 77.3,28 77.3,28 77.4,28 77.5,27.9 77.6,27.9    77.7,27.9 77.8,27.9 77.9,27.9 77.9,27.9 78,27.8 78.1,27.8 78.2,27.8 78.4,27.7 78.5,27.7 78.6,27.7 78.7,27.6 78.8,27.6    78.9,27.6 79,27.5 79.1,27.5 79.2,27.5 79.4,27.4 79.5,27.4 79.6,27.3 79.8,27.3 79.9,27.2 80,27.2 80.1,27.1 80.2,27.1 80.4,27    80.5,27 80.6,26.9 80.8,26.9 80.9,26.8 81,26.8  "/>
	<polygon id="XMLID_33_" class="st0" points="50.8,3 50.8,3.1 50.8,3.2 50.9,3.2 50.9,3.3 50.9,3.3 51,3.4 51,3.4 51,3.5 51.1,3.6    51.1,3.7 51.2,3.7 51.9,4.7 52.7,5.8 52.8,6 52.9,6.1 53,6.2 53.1,6.3 53.2,6.4 53.3,6.4 53.4,6.5 53.6,6.5 53.7,6.6 53.8,6.6    53.9,6.6 54.1,6.5 54.2,6.5 54.3,6.4 54.3,6.4 54.4,6.3 54.5,6.3 54.6,6.2 54.6,6.1 54.7,6 54.8,5.9 54.8,5.9 54.9,5.8 54.9,5.7    55,5.7 55,5.6 55.1,5.5 55.1,5.5 55.1,5.4 55.2,5.3 55.2,5.2 55.2,5.2 55.2,5.1 55.2,5.1 55.2,5 55.2,4.9 55.2,4.9 55.2,4.8    55.2,4.7 55.2,4.6 55.2,4.6 55.2,4.5 55.1,4.5 55.1,4.4 55.1,4.3 55.1,4.3 55,4.1 55,4.1 55,4 54.9,3.9 54.9,3.9 54.9,3.8    54.8,3.7 54.8,3.7 54.8,3.6 54.7,3.5 54.7,3.4 54.6,3.4 54.6,3.3 54.5,3.2 54.5,3.2 54.4,3.1 54.4,3.1 54.3,3 54.3,2.9 54.3,2.9    53.5,2.1 53.4,2 53.3,1.8 53.2,1.8 53.1,1.7 53,1.6 52.9,1.5 52.9,1.4 52.7,1.4 52.7,1.4 52.6,1.3 52.5,1.3 52.4,1.3 52.3,1.3    52.2,1.3 52.1,1.3 52,1.3 51.9,1.3 51.8,1.4 51.6,1.4 51.5,1.5 51.4,1.5 51.3,1.6 51.2,1.7 51.1,1.8 51,1.9 51,2 50.9,2.1    50.8,2.2 50.8,2.3 50.7,2.5 50.7,2.6 50.7,2.7 50.7,2.8 50.7,2.9 50.7,2.9 50.8,3  "/>
	<polygon id="XMLID_32_" class="st0" points="71.1,26.4 71.2,26.4 71.2,26.3 71.3,26.3 71.3,26.2 71.4,26.1 71.4,26.1 71.5,26    71.5,25.9 71.5,25.8 71.6,25.8 71.6,25.7 71.7,25.6 71.7,25.5 71.7,25.4 71.7,25.3 71.8,25.2 71.8,25.1 71.8,25 71.9,24.8    71.9,24.7 71.9,24.6 71.9,24.4 72,24.3 72,24.1 72,23.9 72.1,23.8 72.1,23.6 72.1,23.5 72.1,23.3 72.1,23.1 72.1,23 72.1,22.9    72.2,22.8 72.2,22.6 72.2,22.5 72.2,22.4 72.2,22.3 72.2,22.3 72.2,22.2 72.2,22.1 72.2,22 72.2,22 72.2,21.9 72.1,21.8 72.1,21.7    72,21.6 72,21.5 71.9,21.4 71.8,21.3 71.8,21.2 71.7,21.2 71.6,21.1 71.5,21.1 71.4,21 71.3,21 71.1,21 71,21 70.9,21 70.8,21    70.7,21 70.5,21 70.4,21.1 70.3,21.1 70.2,21.2 70.1,21.3 70,21.4 69.9,21.5 69.8,21.6 69.8,21.7 69.7,21.8 69.7,21.9 69.6,22.1    69.6,22.2 69.5,22.4 69.5,22.5 69.5,22.6 69.5,22.6 69.5,22.7 69.5,22.8 69.5,22.8 69.4,22.9 69.4,23 69.4,23 69.4,23.1 69.4,23.2    69.4,23.2 69.4,23.3 69.3,23.4 69.3,23.5 69.3,23.6 69.3,23.6 69.3,23.7 69.3,23.8 69.3,23.9 69.3,23.9 69.3,24 69.3,24.1    69.3,24.1 69.3,24.2 69.3,24.2 69.2,24.2 69.2,24.3 69.2,24.3 69.2,24.3 69.2,24.4 69.2,24.4 69.2,24.4 69.2,24.5 69.1,24.5    69.1,24.6 69.1,24.6 69,24.7 69,24.7 68.9,24.7 68.9,24.7 68.8,24.7 68.7,24.7 68.7,24.7 68.6,24.7 68.5,24.7 68.4,24.7 68.3,24.7    68.1,24.8 68,24.8 67.9,24.8 67.7,24.8 67.6,24.8 67.5,24.8 67.3,24.8 67.2,24.8 67.1,24.8 67,24.8 66.9,24.8 66.9,24.8 66.7,24.8    66.7,24.8 66.6,24.8 66.6,24.7 66.5,24.7 66.5,24.7 66.4,24.7 66.4,24.7 66.3,24.7 66.3,24.7 66.3,24.7 66.2,24.6 66.2,24.6    66.1,24.6 66.1,24.5 66.1,24.5 66.1,24.5 66.1,24.4 66.1,24.4 66.1,24.3 66.1,24.3 66.1,24.2 66.1,24.2 66.1,24.1 66.1,24.1    67.3,16.9 67.3,16.8 67.3,16.7 67.3,16.7 67.3,16.6 67.3,16.5 67.3,16.5 67.3,16.4 67.3,16.4 67.2,16.3 67.2,16.2 67.2,16.1    67.2,16.1 67.1,16 67.1,16 67.1,15.9 67,15.9 66.9,15.8 66.8,15.7 66.7,15.6 66.6,15.5 66.4,15.5 66.3,15.5 66.2,15.5 66,15.5    66,15.5 65.9,15.5 65.9,15.5 65.8,15.5 65.7,15.5 65.7,15.5 65.6,15.6 65.5,15.6 65.5,15.6 65.4,15.7 65.4,15.7 65.3,15.7    65.3,15.8 65.2,15.8 65.2,15.9 65.2,15.8 65.2,15.7 65.2,15.6 65.3,15.5 65.3,15.4 65.3,15.3 65.3,15.3 65.3,15.2 65.4,15.1    65.4,15 65.4,14.9 65.4,14.8 65.4,14.8 65.5,14.7 65.5,14.6 65.5,14.5 65.5,14.5 65.5,14.3 65.6,14.3 65.6,14.2 65.6,14.1 65.6,14    65.7,14 65.7,13.9 65.7,13.8 65.7,13.7 65.7,13.6 65.8,13.5 65.8,13.4 65.8,13.4 65.8,13.3 65.8,13.2 65.8,13.1 65.9,13 65.9,12.9    65.9,12.8 65.9,12.7 66,12.6 66,12.4 66,12.3 66,12.2 66,12.1 66.1,12 66.1,11.9 66.1,11.7 66.1,11.6 66.2,11.5 66.2,11.4    66.2,11.3 66.3,11.2 66.3,11 66.3,10.9 66.3,10.7 66.4,10.6 66.4,10.4 66.4,10.3 66.4,10.2 66.5,10.1 66.5,9.9 66.5,9.8 66.5,9.7    66.6,9.6 66.6,9.4 66.6,9.3 66.6,9.2 66.7,9.1 66.7,9 66.7,8.9 66.7,8.8 66.7,8.7 66.8,8.5 66.8,8.4 66.8,8.3 66.8,8.3 66.9,8.2    66.9,8.1 66.9,8 66.9,7.9 66.9,7.8 66.9,7.7 67,7.7 67,7.6 67,7.5 67,7.4 67,7.4 67,7.3 67,7.2 67,7.1 67.1,7 67.1,6.9 67.1,6.8    67.1,6.7 67.1,6.6 67.1,6.5 67.1,6.4 67.1,6.3 67.1,6.2 67,6.2 67,6.1 67,6 66.9,5.9 66.9,5.9 66.9,5.8 66.8,5.7 66.7,5.7    66.7,5.7 66.6,5.6 66.6,5.6 66.5,5.6 66.4,5.5 66.4,5.5 66.3,5.5 66.2,5.5 66.1,5.5 66.1,5.5 66,5.5 65.9,5.5 65.9,5.5 65.8,5.5    65.7,5.5 65.5,5.5 65.4,5.6 65.3,5.6 65.2,5.7 65.1,5.7 65.1,5.8 65,5.9 64.9,5.9 64.9,5.9 64.9,6 64.8,6 64.8,6.1 64.7,6.2    64.7,6.2 64.7,6.3 64.7,6.3 64.6,6.4 64.6,6.5 64.6,6.5 64.6,6.6 64.5,6.7 64.5,6.8 64.5,6.8 64.5,6.9 64.5,7 64.4,7 64.4,7.1    64.4,7.2 64.4,7.3 64.4,7.4 64.4,7.5 64.3,7.5 64.3,7.6 64.3,7.7 64.3,7.8 64.2,7.9 64.2,8 64.2,8.1 64.2,8.2 64.2,8.2 63.5,11.8    63.4,12 63.4,12.1 63.4,12.2 63.4,12.3 63.3,12.4 63.3,12.6 63.3,12.7 63.3,12.8 63.3,12.9 63.2,13 63.2,13.2 63.2,13.4 63.1,13.5    63.1,13.6 63.1,13.8 63.1,13.9 63,14 63,14.1 63,14.2 62.9,14.3 62.9,14.4 62.9,14.5 62.9,14.6 62.8,14.7 62.8,14.8 62.8,14.8    62.8,14.9 62.8,15 62.7,15.1 62.7,15.2 62.7,15.3 62.7,15.3 62.7,15.4 62.6,15.5 62.6,15.6 62.6,15.7 62.6,15.8 62.5,15.8    62.5,15.9 62.5,16 62.5,16.1 62.4,16.2 62.4,16.3 62.3,16.4 62.3,16.5 62.3,16.6 62.2,16.7 62.2,16.8 62.2,16.9 62.1,17 62.1,17.1    62.1,17.2 62,17.3 62,17.4 61.9,17.5 61.9,17.6 61.9,17.7 61.8,17.8 61.8,17.9 61.7,18.1 61.7,18.2 61.6,18.3 61.6,18.4 61.5,18.5    61.5,18.6 61.4,18.7 61.4,18.9 61.3,19 61.3,19.1 61.2,19.2 61.1,19.3 61,19.4 61,19.6 60.9,19.7 60.8,19.8 60.8,19.9 60.7,20    60.6,20.2 60.5,20.3 60.4,20.4 60.3,20.5 60.2,20.6 60.1,20.7 60.1,20.9 60,21 59.9,21.1 59.7,21.2 59.6,21.4 59.5,21.5 59.4,21.6    59.3,21.8 59.2,21.9 59.1,22 58.9,22.2 58.8,22.3 58.7,22.4 58.6,22.5 58.4,22.6 58.3,22.8 58.2,22.9 58.1,23 58,23.1 57.8,23.2    57.7,23.3 57.6,23.5 57.5,23.6 57.4,23.6 57.3,23.7 57.2,23.8 57,23.9 56.9,24.1 56.8,24.1 56.7,24.2 56.6,24.3 56.5,24.4    56.4,24.5 56.3,24.6 56.2,24.7 56.1,24.7 56,24.8 55.9,24.9 55.8,25 55.7,25 55.6,25.1 55.5,25.1 55.4,25.2 55.2,25.3 55.1,25.4    55,25.5 54.8,25.6 54.6,25.7 54.5,25.8 54.3,25.9 54.3,26 54.2,26 54.1,26.1 53.9,26.2 53.8,26.3 53.8,26.4 53.7,26.4 53.6,26.5    53.6,26.6 53.5,26.7 53.5,26.7 53.4,26.8 53.4,26.9 53.4,27 53.3,27 53.3,27.1 53.3,27.2 53.3,27.3 53.3,27.4 53.3,27.4 53.3,27.5    53.3,27.6 53.4,27.6 53.4,27.7 53.4,27.8 53.5,27.9 53.5,27.9 53.6,28 53.6,28 53.7,28.1 53.7,28.1 53.8,28.2 53.8,28.2 53.9,28.2    54,28.3 54.1,28.3 54.2,28.3 54.2,28.3 54.3,28.3 54.3,28.3 54.4,28.3 54.5,28.4 54.6,28.4 54.6,28.4 54.7,28.4 54.8,28.4    54.9,28.3 54.9,28.3 55,28.3 55.1,28.3 55.1,28.3 55.2,28.2 55.2,28.2 55.3,28.2 55.4,28.2 55.4,28.1 55.5,28.1 55.6,28.1 55.7,28    55.8,28 55.9,27.9 55.9,27.9 56.1,27.8 56.2,27.7 56.3,27.7 56.4,27.6 56.5,27.5 56.6,27.4 56.7,27.4 56.8,27.3 57,27.2 57.1,27.1    57.2,27 57.4,26.9 57.5,26.8 57.6,26.7 57.8,26.6 57.9,26.5 58.1,26.4 58.2,26.3 58.3,26.2 58.4,26.1 58.6,26 58.7,25.8 58.9,25.7    59,25.6 59.1,25.5 59.3,25.4 59.4,25.3 59.5,25.2 59.6,25.1 59.7,24.9 59.9,24.8 60,24.7 60.1,24.6 60.2,24.5 60.3,24.4 60.4,24.3    60.6,24.1 60.7,24 60.8,23.9 60.9,23.8 61,23.7 61.1,23.6 61.2,23.4 61.3,23.3 61.4,23.2 61.5,23.1 61.6,23 61.6,22.8 61.8,22.7    61.8,22.6 61.9,22.5 62,22.4 62.1,22.3 62.2,22.1 62.3,22 62.3,21.9 62.4,21.8 62.5,21.7 62.6,21.6 62.7,21.5 62.7,21.3 62.8,21.2    62.9,21.1 62.9,21 63,20.9 63.1,20.8 63.2,20.7 63.2,20.6 63.3,20.5 63.3,20.4 63.4,20.3 63.4,20.2 63.5,20.1 63.5,20 63.6,19.9    63.7,19.8 63.7,19.7 63.8,19.6 63.8,19.5 63.9,19.4 63.9,19.3 63.9,19.2 64,19.1 64,19 64.1,19 64.1,18.9 64.2,18.7 64.2,18.7    64.2,18.6 64.3,18.5 64.3,18.4 64.4,18.3 64.4,18.2 64.4,18.1 63.4,24.8 63.4,24.8 63.4,24.8 63.4,24.9 63.4,24.9 63.4,25 63.4,25    63.3,25.1 63.3,25.1 63.3,25.2 63.3,25.3 63.3,25.3 63.3,25.4 63.3,25.4 63.4,25.5 63.4,25.5 63.4,25.6 63.4,25.6 63.4,25.7    63.4,25.8 63.4,25.8 63.4,25.9 63.4,26 63.5,26.1 63.5,26.1 63.5,26.2 63.6,26.2 63.6,26.3 63.7,26.4 63.7,26.4 63.7,26.5    63.8,26.6 63.8,26.6 63.9,26.7 63.9,26.7 64,26.8 64.1,26.9 64.2,26.9 64.2,26.9 64.3,27 64.4,27 64.5,27.1 64.6,27.1 64.7,27.1    64.8,27.2 64.9,27.2 64.9,27.2 65,27.2 65.1,27.3 65.2,27.3 65.3,27.3 65.3,27.3 65.4,27.3 65.4,27.3 65.5,27.3 65.6,27.3    65.7,27.3 65.7,27.3 65.8,27.3 65.8,27.3 65.9,27.4 66,27.4 66.1,27.4 66.1,27.4 66.2,27.4 66.3,27.4 66.4,27.4 66.5,27.4    66.5,27.4 66.6,27.4 66.7,27.4 66.8,27.4 66.9,27.4 67,27.4 67.1,27.4 67.2,27.4 67.2,27.4 67.3,27.4 67.5,27.4 67.6,27.4    67.7,27.4 67.7,27.4 67.9,27.4 68,27.4 68.2,27.4 68.3,27.4 68.4,27.4 68.5,27.4 68.6,27.4 68.8,27.4 68.9,27.4 69,27.4 69.1,27.4    69.2,27.3 69.3,27.3 69.4,27.3 69.5,27.3 69.6,27.3 69.7,27.3 69.8,27.3 69.8,27.3 69.9,27.2 70,27.2 70.1,27.1 70.2,27.1    70.3,27.1 70.3,27.1 70.4,27 70.5,27 70.5,26.9 70.6,26.9 70.7,26.8 70.8,26.8 70.8,26.7 70.9,26.7 70.9,26.6 71,26.6 71.1,26.5     "/>
	<polygon id="XMLID_31_" class="st0" points="57.7,16.9 57.7,17 57.7,17.1 57.8,17.1 57.8,17.2 57.8,17.2 57.8,17.3 57.9,17.3    57.9,17.4 58,17.5 58.1,17.6 58.2,17.7 58.3,17.7 58.4,17.8 58.6,17.8 58.7,17.9 58.8,17.9 58.9,17.9 58.9,17.9 59,17.9 59.1,17.9    59.1,17.8 59.2,17.8 59.3,17.8 59.3,17.8 59.4,17.8 59.5,17.7 59.5,17.7 59.6,17.7 59.6,17.6 59.7,17.6 59.7,17.5 59.8,17.5    59.9,17.4 59.9,17.4 60,17.3 60,17.3 60.1,17.2 60.1,17.2 60.1,17.1 60.2,17.1 60.2,17 60.2,16.9 60.3,16.8 60.3,16.8 60.3,16.7    60.3,16.6 60.3,16.6 60.3,16.5 62,6.2 62,6.2 62,6.1 62,6 62,5.9 62.1,5.9 62.1,5.8 62.1,5.8 62.1,5.7 62.1,5.7 62.1,5.6 62.1,5.6    62.2,5.5 62.2,5.5 62.2,5.5 62.2,5.4 62.2,5.4 62.2,5.3 62.3,5.3 62.3,5.2 62.4,5.2 62.4,5.2 62.5,5.1 62.5,5.1 62.6,5.1 62.6,5.1    62.7,5.1 62.7,5.1 62.8,5 62.8,5 62.9,5 62.9,5 63,5 63,5 63.1,5 63.1,5 63.2,5 63.3,5 63.3,5 63.4,5 63.5,5 64.9,5 69.5,5 69.5,5    69.6,5 69.7,5 69.7,5 69.8,5 69.8,5 69.9,5 69.9,5 69.9,5 70,5 70.1,5 70.1,5 70.1,5 70.2,5.1 70.2,5.1 70.2,5.1 70.3,5.1    70.3,5.1 70.3,5.1 70.4,5.1 70.4,5.2 70.4,5.2 70.4,5.2 70.4,5.3 70.4,5.3 70.4,5.3 70.4,5.4 70.4,5.5 70.4,5.5 70.4,5.5 70.4,5.6    70.3,5.6 70.3,5.7 70.3,5.7 70.3,5.8 70.3,5.8 70.3,5.9 70.3,5.9 70.3,6 68.6,16.7 68.6,16.8 68.6,16.8 68.6,16.9 68.6,17    68.6,17.1 68.6,17.1 68.6,17.2 68.6,17.3 68.6,17.3 68.7,17.4 68.7,17.5 68.7,17.5 68.8,17.6 68.8,17.7 68.9,17.7 68.9,17.8    69,17.9 69.1,18 69.2,18 69.3,18.1 69.5,18.1 69.6,18.2 69.7,18.2 69.9,18.2 69.9,18.2 70,18.1 70.1,18.1 70.1,18.1 70.2,18.1    70.3,18.1 70.3,18.1 70.4,18 70.4,18 70.5,18 70.5,17.9 70.6,17.9 70.6,17.9 70.7,17.8 70.8,17.8 70.8,17.7 70.9,17.7 70.9,17.7    70.9,17.6 71,17.5 71,17.5 71.1,17.4 71.1,17.4 71.1,17.3 71.2,17.3 71.2,17.2 71.2,17.1 71.2,17.1 71.2,17 71.3,16.9 71.3,16.9    71.3,16.8 73.1,5.6 73.1,5.5 73.1,5.3 73.1,5.3 73.1,5.2 73.1,5.1 73.1,5 73.1,4.9 73.1,4.7 73.1,4.6 73.1,4.5 73,4.4 73,4.2    73,4.1 73,4 72.9,3.8 72.9,3.7 72.9,3.6 72.9,3.5 72.8,3.4 72.8,3.3 72.7,3.3 72.7,3.2 72.7,3.1 72.6,3.1 72.5,3 72.5,2.9    72.4,2.9 72.3,2.8 72.3,2.7 72.2,2.7 72.1,2.7 72,2.6 71.9,2.6 71.8,2.5 71.8,2.5 71.7,2.5 71.6,2.4 71.5,2.4 71.4,2.4 71.2,2.4    71.1,2.4 71,2.4 70.9,2.3 70.8,2.3 70.7,2.3 70.6,2.3 70.4,2.3 70.3,2.3 64.9,2.3 63.1,2.3 62.9,2.3 62.8,2.3 62.7,2.3 62.6,2.3    62.5,2.3 62.3,2.4 62.2,2.4 62.1,2.4 62,2.4 61.9,2.4 61.8,2.4 61.7,2.5 61.6,2.5 61.5,2.5 61.4,2.6 61.3,2.6 61.2,2.6 61.1,2.7    61,2.7 60.9,2.8 60.9,2.9 60.8,2.9 60.7,3 60.6,3 60.6,3.1 60.5,3.1 60.5,3.2 60.4,3.3 60.3,3.4 60.3,3.4 60.2,3.5 60.2,3.6    60.1,3.7 60,3.9 60,4 59.9,4.1 59.8,4.3 59.8,4.4 59.7,4.5 59.7,4.6 59.6,4.7 59.6,4.9 59.5,5 59.5,5.1 59.5,5.2 59.5,5.3    59.4,5.4 59.4,5.5 57.7,16.4 57.7,16.5 57.7,16.5 57.7,16.6 57.7,16.7 57.7,16.7 57.7,16.8 57.7,16.9  "/>
	<polygon id="XMLID_30_" class="st0" points="78.5,12.3 78.5,12.4 78.5,12.5 78.5,12.5 78.6,12.6 78.6,12.7 78.6,12.7 78.7,12.8    78.7,12.8 78.8,12.9 78.9,13 79,13.1 79.1,13.2 79.2,13.2 79.4,13.2 79.5,13.3 79.7,13.3 79.7,13.3 79.8,13.2 79.8,13.2 79.9,13.2    80,13.2 80,13.2 80.1,13.2 80.1,13.1 80.2,13.1 80.2,13.1 80.3,13 80.4,13 80.4,13 80.5,12.9 80.5,12.9 80.6,12.8 80.6,12.8    80.7,12.7 80.7,12.7 80.7,12.6 80.8,12.6 80.8,12.5 80.8,12.4 80.9,12.4 80.9,12.3 81,12.3 81,12.2 81,12.2 81,12.1 81,12 81.1,12    81.1,11.9 81.3,10.3 81.3,10.3 81.3,10.2 81.4,10.1 81.4,10.1 81.4,10 81.4,10 81.5,10 81.5,10 81.5,10 81.6,10 81.6,10 81.7,10    81.7,10 81.8,10 81.8,9.9 81.9,9.9 82,9.9 82,9.9 82.1,9.9 82.2,9.9 82.3,9.9 82.4,9.9 86.2,9.9 90.6,9.9 92.3,9.9 101.1,9.9    101.1,9.9 101.2,9.9 101.3,9.9 101.3,9.9 101.4,9.9 101.5,10 101.5,10 101.5,10 101.5,10 101.5,10 101.5,10.1 101.6,10.1    101.6,10.1 101.6,10.2 101.5,10.2 101.5,10.2 101.5,10.3 101.5,10.4 101.5,10.4 101.5,10.5 100.9,11.9 100.9,12 100.9,12.1    100.8,12.2 100.8,12.2 100.8,12.3 100.8,12.4 100.8,12.5 100.8,12.6 100.8,12.6 100.8,12.7 100.9,12.8 100.9,12.8 100.9,12.9    100.9,13 101,13 101,13.1 101,13.2 101.1,13.2 101.1,13.3 101.2,13.3 101.2,13.3 101.3,13.4 101.4,13.4 101.4,13.4 101.5,13.4    101.6,13.5 101.6,13.5 101.7,13.5 101.8,13.5 101.9,13.5 101.9,13.5 102.1,13.5 102.1,13.5 102.2,13.5 102.3,13.5 102.4,13.5    102.5,13.5 102.6,13.4 102.7,13.4 102.8,13.3 102.8,13.3 102.9,13.2 103,13.2 103,13.1 103.1,13 103.2,12.9 103.2,12.8 103.3,12.7    103.4,12.6 103.4,12.6 103.5,12.4 103.5,12.3 103.5,12.2 103.6,12.2 103.6,12.1 103.7,12 103.7,11.9 103.8,11.7 103.8,11.6    103.9,11.5 103.9,11.4 104,11.3 104,11.2 104.1,11 104.1,10.9 104.2,10.8 104.2,10.7 104.2,10.6 104.3,10.5 104.3,10.4 104.3,10.3    104.4,10.2 104.4,10.1 104.4,10.1 104.4,10 104.5,9.9 104.5,9.8 104.5,9.7 104.5,9.7 104.5,9.6 104.5,9.5 104.6,9.5 104.6,9.4    104.6,9.3 104.6,9.2 104.6,9.2 104.6,9.1 104.5,9 104.5,8.9 104.5,8.8 104.5,8.8 104.5,8.7 104.5,8.6 104.5,8.5 104.5,8.4    104.4,8.3 104.4,8.2 104.4,8 104.3,7.9 104.2,7.8 104.1,7.7 104,7.6 103.9,7.6 103.7,7.5 103.6,7.4 103.5,7.4 103.3,7.4 103.1,7.3    102.9,7.3 102.8,7.3 102.5,7.3 102.3,7.3 100.3,7.3 100.4,7.1 100.5,7 100.7,6.8 100.8,6.7 100.9,6.5 101,6.4 101.1,6.3 101.2,6.1    101.3,6 101.4,5.9 101.5,5.8 101.6,5.6 101.7,5.5 101.8,5.4 101.9,5.3 101.9,5.2 102,5.1 102.1,5 102.2,4.9 102.2,4.9 102.3,4.7    102.3,4.7 102.4,4.6 102.4,4.5 102.5,4.5 102.5,4.4 102.6,4.4 102.6,4.3 102.7,4.3 102.7,4.1 102.8,4 102.9,4 102.9,3.9 103,3.8    103,3.7 103.1,3.6 103.1,3.6 103.1,3.5 103.2,3.4 103.2,3.3 103.2,3.3 103.3,3.2 103.3,3.2 103.3,3.1 103.4,3 103.4,2.9 103.4,2.8    103.4,2.7 103.4,2.6 103.4,2.6 103.4,2.5 103.4,2.4 103.4,2.3 103.4,2.2 103.3,2.1 103.3,2 103.2,2 103.2,1.9 103.1,1.9 103,1.8    103,1.8 102.9,1.7 102.9,1.7 102.8,1.7 102.8,1.6 102.7,1.6 102.6,1.5 102.6,1.5 102.5,1.5 102.4,1.5 102.4,1.5 102.3,1.5    102.3,1.4 102.2,1.4 102.2,1.4 102.1,1.4 102,1.4 101.9,1.5 101.8,1.5 101.7,1.5 101.6,1.6 101.5,1.6 101.5,1.7 101.3,1.7    101.3,1.8 101.2,1.8 101.2,1.9 101.1,1.9 101,2 101,2 100.9,2.1 100.9,2.1 100.8,2.2 100.8,2.3 100.7,2.4 100.6,2.5 100.5,2.6    100.5,2.7 100.4,2.8 100.3,2.9 100.2,3 100.2,3.1 100.1,3.2 100,3.4 99.9,3.5 99.8,3.6 99.8,3.7 99.7,3.8 99.6,4 99.5,4.1    99.4,4.2 99.3,4.3 99.2,4.4 99.2,4.6 99.1,4.7 99,4.8 98.9,4.9 98.9,5 98.8,5 98.7,5.1 98.7,5.2 98.6,5.3 98.5,5.3 98.5,5.4    98.5,5.5 98.4,5.6 98.3,5.6 98.3,5.7 98.2,5.8 98.2,5.9 98.1,6 98,6.1 97.9,6.2 97.9,6.3 97.8,6.3 97.8,6.4 97.7,6.5 97.6,6.6    97.6,6.7 97.5,6.8 97.4,6.9 97.4,6.9 97.3,7 97.2,7.1 97.2,7.2 97.1,7.3 92.3,7.3 90.6,7.3 86.2,7.3 85.6,7.3 85.6,7.2 85.7,7.2    85.7,7.1 85.8,7.1 85.8,7 85.9,6.9 86,6.9 86,6.8 86.1,6.8 86.1,6.7 86.2,6.6 86.2,6.5 86.2,6.5 86.2,6.4 86.2,6.4 86.3,6.3    86.3,6.2 86.3,6.2 86.3,6.1 86.3,6 86.3,5.9 86.3,5.9 86.3,5.8 86.3,5.8 86.3,5.7 86.3,5.6 86.3,5.6 86.3,5.5 86.2,5.5 86.2,5.4    86.2,5.3 86.2,5.3 86.2,5.3 86.2,5.2 86.1,5.2 86.1,5.1 86.1,5.1 86,5 86,5 85.9,4.9 85.9,4.8 85.8,4.7 85.8,4.6 85.7,4.6    85.7,4.5 85.6,4.4 85.5,4.3 85.5,4.1 85.3,4 85.3,3.9 85.2,3.8 85.1,3.7 85,3.6 85,3.5 84.9,3.4 84.8,3.3 84.8,3.2 84.7,3.1    84.6,3.1 84.5,3 84.5,2.9 84.4,2.9 84.4,2.8 84.3,2.7 84.3,2.7 84.3,2.7 84.2,2.6 84.1,2.6 84,2.5 83.9,2.5 83.9,2.4 83.8,2.4    83.7,2.4 83.6,2.3 83.5,2.3 83.4,2.3 83.4,2.3 83.3,2.3 83.2,2.3 83.2,2.3 83.1,2.3 83.1,2.3 83,2.4 83,2.4 82.9,2.4 82.8,2.4    82.8,2.4 82.7,2.4 82.7,2.5 82.6,2.5 82.5,2.6 82.4,2.6 82.3,2.7 82.2,2.8 82.1,2.9 82,3 82,3.1 81.9,3.2 81.9,3.3 81.9,3.4    81.8,3.6 81.8,3.7 81.8,3.8 81.8,3.9 81.8,4 81.9,4.1 81.9,4.1 81.9,4.3 82,4.3 82,4.4 82.1,4.5 82.1,4.6 82.2,4.7 82.3,4.8    82.3,4.9 82.3,4.9 82.4,5 82.4,5 82.4,5.1 82.5,5.1 82.5,5.1 82.5,5.2 82.6,5.2 82.6,5.3 82.6,5.3 82.7,5.4 82.7,5.4 82.7,5.5    82.8,5.5 82.8,5.6 83.5,6.4 83.6,6.5 83.8,6.7 83.9,6.8 84,7 84.1,7.1 84.2,7.2 84.4,7.2 84.4,7.3 82,7.3 81.8,7.3 81.7,7.3    81.5,7.3 81.4,7.3 81.3,7.3 81.1,7.3 81,7.3 80.9,7.4 80.8,7.4 80.7,7.4 80.6,7.4 80.5,7.5 80.4,7.5 80.2,7.5 80.2,7.6 80.1,7.6    80,7.6 80,7.7 79.9,7.7 79.8,7.8 79.8,7.8 79.7,7.9 79.7,7.9 79.6,8 79.5,8 79.5,8.1 79.4,8.2 79.4,8.2 79.4,8.3 79.3,8.3    79.3,8.4 79.2,8.5 79.2,8.5 79.1,8.6 79.1,8.7 79.1,8.8 79,8.8 79,8.9 79,9 78.9,9 78.9,9.1 78.9,9.2 78.9,9.3 78.8,9.4 78.8,9.5    78.8,9.5 78.8,9.6 78.8,9.7 78.5,11.8 78.5,11.9 78.4,11.9 78.4,12 78.4,12.1 78.4,12.1 78.4,12.2 78.5,12.3  "/>
	<polygon id="XMLID_29_" class="st0" points="96.3,20.8 96.4,20.9 96.4,20.9 96.5,21 96.5,21 96.5,21.1 96.6,21.1 96.6,21.1    96.7,21.2 96.7,21.2 96.8,21.2 96.9,21.3 97,21.3 97,21.3 97.1,21.3 97.1,21.4 97.2,21.4 97.3,21.4 97.3,21.4 97.4,21.4 97.5,21.4    97.5,21.4 97.6,21.4 97.7,21.4 97.8,21.4 97.8,21.4 97.9,21.3 98,21.3 98,21.3 98.1,21.3 98.1,21.2 98.2,21.2 98.3,21.2 98.3,21.1    98.4,21.1 98.5,21 98.5,21 98.6,20.9 98.6,20.9 98.6,20.8 98.7,20.7 98.7,20.7 98.8,20.6 98.8,20.6 98.8,20.5 98.9,20.4 98.9,20.4    98.9,20.3 98.9,20.2 99,20.2 99,20.1 99,20 99.9,14.2 99.9,14.1 99.9,13.9 99.9,13.8 99.9,13.6 99.9,13.5 99.9,13.4 99.9,13.2    99.9,13.1 99.9,13 99.9,12.9 99.9,12.7 99.9,12.6 99.8,12.5 99.8,12.4 99.7,12.3 99.7,12.2 99.6,12.1 99.6,12 99.4,12 99.4,11.9    99.3,11.8 99.2,11.7 99.1,11.7 98.9,11.6 98.8,11.6 98.7,11.6 98.6,11.5 98.4,11.5 98.3,11.5 98.1,11.5 98,11.5 97.8,11.5    92.3,11.5 90.6,11.5 86.2,11.5 84.2,11.5 84,11.5 83.9,11.5 83.8,11.5 83.6,11.5 83.5,11.5 83.4,11.5 83.3,11.6 83.2,11.6    83.1,11.6 83,11.6 82.9,11.7 82.8,11.7 82.7,11.8 82.6,11.8 82.5,11.9 82.5,11.9 82.4,12 82.4,12 82.3,12.1 82.3,12.1 82.2,12.2    82.2,12.3 82.1,12.3 82.1,12.4 82,12.4 82,12.5 82,12.6 81.9,12.6 81.9,12.7 81.9,12.8 81.8,12.8 81.8,12.9 81.8,12.9 81.8,13    81.7,13.1 81.7,13.2 81.7,13.2 81.7,13.3 81.6,13.4 81.6,13.4 81.6,13.5 81.6,13.6 81.5,13.6 81.5,13.7 81.5,13.8 81.5,13.9    81.5,13.9 81.5,14 80.5,20 80.5,20.1 80.5,20.2 80.5,20.3 80.5,20.3 80.5,20.4 80.5,20.5 80.5,20.5 80.5,20.6 80.6,20.6 80.6,20.7    80.6,20.8 80.6,20.9 80.7,20.9 80.7,21 80.7,21 80.8,21.1 80.9,21.2 81,21.2 81.1,21.3 81.2,21.4 81.3,21.4 81.5,21.5 81.6,21.5    81.8,21.5 81.8,21.5 81.9,21.5 82,21.5 82,21.4 82.1,21.4 82.1,21.4 82.2,21.4 82.3,21.3 82.4,21.3 82.4,21.3 82.5,21.2 82.5,21.2    82.6,21.2 82.6,21.1 82.7,21.1 82.7,21 82.8,21 82.8,21 82.9,20.9 82.9,20.9 83,20.8 83,20.7 83,20.7 83.1,20.6 83.1,20.6    83.1,20.5 83.1,20.5 83.2,20.4 83.2,20.3 83.2,20.3 83.2,20.2 83.2,20.2 84,14.9 84,14.8 84.1,14.7 84.1,14.7 84.1,14.6 84.2,14.5    84.2,14.5 84.2,14.4 84.2,14.3 84.2,14.3 84.3,14.3 84.3,14.2 84.3,14.2 84.3,14.2 84.4,14.2 84.4,14.2 84.4,14.1 84.5,14.1    84.5,14.1 84.5,14.1 84.6,14.1 84.6,14.1 84.6,14.1 84.7,14.1 84.8,14.1 84.8,14.1 84.9,14.1 84.9,14.1 85,14.1 85,14.1 85.1,14.1    86.2,14.1 90.6,14.1 92.3,14.1 96.5,14.1 96.5,14.1 96.6,14.1 96.7,14.1 96.7,14.1 96.8,14.1 96.8,14.1 96.9,14.1 97,14.1 97,14.1    97,14.2 97,14.2 97,14.2 97,14.2 97,14.3 97,14.3 97,14.3 97,14.4 97,14.4 97,14.5 97,14.5 97,14.5 97,14.6 97,14.6 97,14.6    97,14.7 97,14.7 96.2,19.9 96.2,20 96.2,20 96.2,20.1 96.2,20.2 96.2,20.3 96.2,20.3 96.2,20.4 96.2,20.5 96.2,20.5 96.2,20.6    96.3,20.7 96.3,20.7  "/>
	<polygon id="XMLID_28_" class="st0" points="90.5,3.1 90.5,3.2 90.6,3.3 90.6,3.4 90.6,3.5 90.6,3.6 90.7,3.6 90.7,3.7 90.7,3.8    90.8,4 90.8,4.1 90.9,4.2 90.9,4.3 90.9,4.4 91,4.5 91,4.6 91,4.7 91.1,4.8 91.1,4.9 91.1,5 91.2,5.1 91.2,5.2 91.2,5.2 91.3,5.3    91.3,5.4 91.3,5.5 91.3,5.5 91.4,5.6 91.4,5.7 91.4,5.7 91.4,5.8 91.4,5.9 91.5,5.9 91.5,6 91.5,6.1 91.6,6.1 91.6,6.2 91.6,6.2    91.6,6.3 91.7,6.3 91.7,6.4 91.7,6.4 91.8,6.5 91.9,6.6 92,6.7 92,6.8 92.1,6.8 92.2,6.9 92.3,6.9 92.3,7 92.4,7 92.5,7 92.6,7    92.7,7.1 92.8,7.1 92.9,7.1 93,7.1 93.1,7 93.2,7 93.3,7 93.4,6.9 93.6,6.9 93.7,6.8 93.8,6.8 93.9,6.7 93.9,6.6 94,6.5 94.1,6.4    94.1,6.3 94.2,6.2 94.2,6.1 94.2,5.9 94.2,5.8 94.2,5.7 94.2,5.6 94.2,5.5 94.2,5.3 94.2,5.2 94.1,5.1 94.1,5 94.1,4.9 94.1,4.8    94.1,4.7 94.1,4.6 94.1,4.5 94,4.5 94,4.4 94,4.3 94,4.2 94,4.1 93.9,4.1 93.9,4 93.9,3.9 93.9,3.9 93.8,3.8 93.8,3.7 93.8,3.6    93.8,3.6 93.7,3.4 93.7,3.3 93.6,3.3 93.6,3.2 93.6,3 93.5,2.9 93.5,2.8 93.4,2.7 93.4,2.6 93.4,2.5 93.3,2.4 93.3,2.4 93.3,2.3    93.3,2.2 93.2,2.1 93.2,2.1 93.2,2 93.1,2 93.1,1.9 93.1,1.9 93,1.8 93,1.8 93,1.7 92.9,1.7 92.9,1.7 92.8,1.6 92.8,1.5 92.7,1.5    92.7,1.4 92.6,1.4 92.5,1.3 92.5,1.3 92.3,1.3 92.3,1.3 92.2,1.2 92.1,1.2 92.1,1.2 92,1.2 92,1.2 91.9,1.2 91.9,1.2 91.8,1.3    91.7,1.3 91.6,1.3 91.6,1.3 91.5,1.3 91.5,1.3 91.4,1.3 91.3,1.4 91.2,1.4 91,1.5 90.9,1.6 90.8,1.7 90.7,1.9 90.7,2 90.6,2    90.6,2.1 90.6,2.3 90.5,2.4 90.5,2.5 90.5,2.6 90.5,2.7 90.5,2.7 90.5,2.9 90.5,3  "/>
	<polygon id="XMLID_27_" class="st0" points="100.8,27 100.8,27 100.9,26.9 101,26.8 101.1,26.8 101.1,26.7 101.2,26.6 101.2,26.5    101.3,26.4 101.4,26.4 101.4,26.3 101.5,26.2 101.6,26.1 101.6,26 101.7,25.9 101.7,25.8 101.8,25.7 101.8,25.6 101.9,25.5    101.9,25.4 102,25.3 102,25.2 102.1,25.1 102.1,25 102.2,24.9 102.2,24.8 102.2,24.7 102.3,24.5 102.3,24.4 102.3,24.3 102.4,24.2    102.4,24.1 102.4,24 102.5,23.9 102.5,23.8 102.5,23.8 102.5,23.7 102.5,23.6 102.6,23.5 102.6,23.4 102.6,23.3 102.6,23.2    102.6,23.1 102.6,23 102.6,23 102.6,22.9 102.6,22.8 102.6,22.7 102.6,22.6 102.6,22.6 102.5,22.5 102.5,22.4 102.5,22.4    102.4,22.3 102.4,22.2 102.3,22.2 102.2,22.1 102.1,22 102,22 101.9,21.9 101.8,21.9 101.7,21.9 101.6,21.9 101.5,21.9 101.3,21.9    101.2,21.9 101.1,21.9 101,21.9 100.9,21.9 100.9,21.9 100.8,22 100.7,22 100.6,22 100.5,22.1 100.4,22.2 100.4,22.2 100.3,22.3    100.3,22.4 100.2,22.4 100.2,22.5 100.2,22.6 100.1,22.6 100.1,22.7 100.1,22.8 100,22.8 100,22.9 100,23 99.9,23 99.9,23.1    99.9,23.2 99.9,23.2 99.9,23.3 99.8,23.4 99.8,23.5 99.8,23.5 99.8,23.6 99.8,23.6 99.7,23.7 99.7,23.8 99.7,23.8 99.7,23.9    99.7,23.9 99.7,24 99.6,24.1 99.6,24.1 99.6,24.2 99.6,24.2 99.6,24.2 99.5,24.3 99.5,24.3 99.5,24.4 99.4,24.4 99.4,24.5    99.4,24.6 99.3,24.7 99.3,24.7 99.2,24.8 99.2,24.8 99.1,24.9 99.1,24.9 99.1,24.9 99,24.9 99,24.9 99,24.9 98.9,24.9 98.9,24.9    98.9,24.9 98.8,24.9 98.7,25 98.7,25 98.6,25 98.5,25 98.5,25 98.4,25 98.3,25 98.3,25 98.2,25 98.1,25 98,25 97.9,25 97.8,25    97.7,25 97.6,25 97.5,25 97.4,25.1 97.3,25.1 97.2,25.1 97,25.1 96.9,25.1 96.7,25.1 96.6,25.1 96.4,25.1 96.2,25.1 96.1,25.1    96,25.1 95.8,25.1 95.7,25.1 95.5,25.1 95.4,25.1 95.3,25.1 95.2,25.1 95.1,25.1 94.9,25.1 94.8,25.1 94.7,25.1 94.6,25.1    94.5,25.1 94.4,25.1 94.3,25.1 94.2,25.1 94.1,25.1 94,25.1 93.9,25.1 93.8,25 93.8,25 93.7,25 93.6,25 93.5,25 93.5,25 93.4,25    93.3,25 93.2,25 93,25 92.9,25 92.8,25 92.8,24.9 92.7,24.9 92.6,24.9 92.6,24.9 92.5,24.9 92.5,24.9 92.4,24.8 92.4,24.8    92.4,24.8 92.4,24.7 92.3,24.7 92.3,24.7 92.3,24.6 92.3,24.6 92.3,24.5 92.3,24.5 92.3,24.5 92.3,24.4 92.3,24.3 92.3,24.3    92.3,24.2 92.4,24.1 92.4,24 92.8,21.1 92.8,21 92.9,21 92.8,20.9 92.8,20.8 92.8,20.7 92.8,20.6 92.8,20.6 92.8,20.5 92.8,20.4    92.7,20.4 92.7,20.3 92.7,20.3 92.6,20.2 92.6,20.1 92.6,20.1 92.5,20 92.5,20 92.4,19.9 92.3,19.9 92.3,19.8 92.2,19.8 92.2,19.8    92.1,19.7 92,19.7 92,19.7 91.9,19.7 91.8,19.7 91.7,19.7 91.7,19.7 91.6,19.7 91.5,19.7 91.5,19.7 91.4,19.7 91.3,19.7 91.3,19.7    91.2,19.7 91.1,19.8 91.1,19.8 91,19.8 90.9,19.8 90.9,19.9 90.8,19.9 90.8,19.9 90.7,20 90.7,20 90.6,20 90.6,20.1 90.5,20.2    90.4,20.3 90.4,20.3 90.3,20.4 90.2,20.5 90.2,20.6 90.1,20.8 90.1,20.9 90.1,21 89.5,25 89.5,25.1 89.4,25.1 89.4,25.2 89.4,25.3    89.4,25.4 89.4,25.5 89.5,25.5 89.5,25.6 89.5,25.7 89.5,25.8 89.5,25.9 89.5,26 89.5,26.1 89.5,26.2 89.6,26.2 89.6,26.3    89.6,26.5 89.7,26.6 89.7,26.7 89.8,26.8 89.9,26.9 90,27 90.1,27 90.2,27.1 90.3,27.2 90.4,27.3 90.6,27.3 90.6,27.4 90.7,27.4    90.8,27.4 91,27.4 91.1,27.5 91.3,27.5 91.4,27.5 91.5,27.5 91.6,27.5 91.7,27.6 91.8,27.6 91.9,27.6 92,27.6 92.1,27.6 92.3,27.6    92.3,27.6 92.4,27.6 92.6,27.6 92.7,27.6 92.8,27.6 93,27.6 93.2,27.6 93.3,27.7 93.5,27.7 93.7,27.7 93.9,27.7 94.1,27.7    94.2,27.7 94.5,27.7 94.7,27.7 94.9,27.7 95.1,27.7 95.3,27.7 95.5,27.7 95.8,27.7 96,27.7 96.2,27.7 96.5,27.7 96.7,27.7    96.9,27.7 97,27.7 97.2,27.7 97.3,27.7 97.4,27.7 97.5,27.7 97.7,27.7 97.8,27.7 97.9,27.7 98,27.7 98.1,27.7 98.2,27.7 98.3,27.7    98.4,27.7 98.5,27.7 98.6,27.7 98.7,27.7 98.8,27.6 98.9,27.6 99,27.6 99.1,27.6 99.2,27.6 99.2,27.6 99.3,27.6 99.4,27.6    99.4,27.6 99.5,27.6 99.6,27.5 99.7,27.5 99.7,27.5 99.8,27.5 99.8,27.5 99.9,27.5 100,27.4 100.2,27.4 100.2,27.3 100.3,27.3    100.4,27.2 100.5,27.2 100.6,27.1 100.7,27.1  "/>
	<polygon id="XMLID_26_" class="st1" points="54.2,37.5 53.9,32.2 52,32.2 49.5,37.5 48.9,32.2 47,32.2 48,40.1 50,40.1 52.4,35.1    52.8,40.1 54.9,40.1 58.8,32.2 56.7,32.2  "/>
	<polygon id="XMLID_25_" class="st1" points="66.2,37.5 65.9,32.2 63.9,32.2 61.4,37.5 60.9,32.2 59,32.2 60,40.1 62,40.1    64.4,35.1 64.8,40.1 66.8,40.1 70.8,32.2 68.6,32.2  "/>
	<polygon id="XMLID_24_" class="st1" points="80.6,32.2 78.1,37.5 77.9,32.2 75.9,32.2 73.4,37.5 72.9,32.2 71,32.2 72,40.1    73.9,40.1 76.4,35.1 76.8,40.1 78.8,40.1 82.8,32.2  "/>
	<polygon id="XMLID_23_" class="st1" points="81.9,40.1 84.1,40.1 84.5,38.1 82.4,38.1  "/>
	<path id="XMLID_22_" class="st1" d="M89.4,33.7c0.2-0.1,0.5-0.2,1-0.2c0.4,0,0.8,0.1,1.2,0.3c0.2,0.1,0.4,0.4,0.5,0.7l2-0.3   c-0.1-0.6-0.5-1.1-1-1.5c-0.5-0.4-1.3-0.6-2.3-0.6c-1.3,0-2.3,0.3-2.9,1c-0.5,0.5-0.7,1-0.7,1.6c0,0.6,0.2,1.1,0.7,1.5   c0.3,0.3,1.1,0.6,2.4,1c0.5,0.2,0.8,0.3,0.9,0.4c0.1,0.1,0.2,0.2,0.2,0.4c0,0.2-0.1,0.4-0.3,0.6c-0.3,0.2-0.7,0.3-1.2,0.3   c-0.5,0-0.9-0.1-1.1-0.3c-0.3-0.2-0.5-0.5-0.7-0.9l-2.1,0.3c0.2,0.8,0.7,1.4,1.3,1.8c0.6,0.4,1.5,0.6,2.7,0.6   c1.2,0,2.1-0.3,2.7-0.8c0.6-0.6,1-1.2,1-2c0-0.6-0.3-1.1-0.8-1.5c-0.4-0.3-1.1-0.6-2.1-0.9c-0.7-0.2-1.1-0.3-1.2-0.4   c-0.2-0.1-0.3-0.3-0.3-0.5C89.1,34,89.2,33.8,89.4,33.7z"/>
	<path id="XMLID_21_" class="st1" d="M101.1,32c-0.5,0-0.9,0.1-1.4,0.3c-0.4,0.2-0.9,0.4-1.4,0.8l0.8-3.9h-2.2l-2.3,11h2.2l0.7-3.2   c0.2-1,0.4-1.6,0.5-1.9c0.2-0.5,0.6-0.9,1-1.2c0.3-0.2,0.7-0.4,1-0.4c0.3,0,0.5,0.1,0.7,0.2c0.2,0.2,0.2,0.4,0.2,0.6   c0,0.1-0.1,0.5-0.2,1l-1,4.8h2.2l1-4.7c0.1-0.7,0.2-1.2,0.2-1.5c0-0.6-0.2-1.1-0.6-1.5C102.3,32.2,101.7,32,101.1,32z"/>
	<polygon id="XMLID_20_" class="st1" points="104.1,40.1 106.3,40.1 107.9,32.2 105.8,32.2  "/>
	<path id="XMLID_19_" class="st1" d="M108.7,38.8c-0.3,1.4-0.5,2.1-0.7,2.4c-0.2,0.2-0.4,0.3-0.7,0.3c-0.2,0-0.5,0-0.9-0.1l-0.3,1.8   c0.5,0.2,1,0.2,1.6,0.2c1,0,1.6-0.3,2.1-1c0.3-0.4,0.6-1.6,1-3.5l1.4-6.8h-2.2L108.7,38.8z"/>
	<path id="XMLID_18_" class="st1" d="M118.6,36c-0.1,0.5-0.2,0.9-0.3,1.1c-0.1,0.3-0.3,0.6-0.4,0.8c-0.2,0.2-0.3,0.4-0.5,0.5   c-0.2,0.1-0.4,0.3-0.6,0.3c-0.2,0.1-0.4,0.1-0.6,0.1c-0.3,0-0.5-0.1-0.7-0.2c-0.2-0.2-0.3-0.4-0.3-0.6c0-0.1,0.1-0.5,0.2-1.1l1-4.7   h-2.2l-0.9,4.5c-0.2,0.8-0.3,1.4-0.3,1.6c0,0.6,0.2,1.1,0.6,1.5c0.4,0.4,0.9,0.6,1.5,0.6c1,0,2-0.4,2.9-1.3l-0.2,1.1h2l1.7-8h-2.2   L118.6,36z"/>
	<path id="XMLID_56_" class="st1" d="M126.8,32c-1.5,0-2.7,0.6-3.5,1.7c-0.6,0.9-0.9,1.8-0.9,2.9c0,1.1,0.3,2,1,2.7   c0.7,0.7,1.5,1,2.6,1c0.8,0,1.5-0.2,2.1-0.6c0.6-0.4,1.1-1,1.5-1.7l-1.9-0.3c-0.4,0.7-1,1.1-1.7,1.1c-0.4,0-0.8-0.2-1.1-0.5   c-0.3-0.3-0.5-0.8-0.5-1.3c0,0,0-0.1,0-0.2h5.4c0.1-0.4,0.2-0.9,0.2-1.4c0-1.1-0.3-1.9-0.9-2.5C128.6,32.3,127.8,32,126.8,32z    M128,35.5h-3.4c0.1-0.7,0.4-1.2,0.7-1.5c0.4-0.3,0.8-0.5,1.2-0.5c0.4,0,0.8,0.1,1.1,0.4c0.3,0.3,0.4,0.7,0.4,1.3   C128.1,35.3,128,35.4,128,35.5z"/>
	<polygon id="XMLID_15_" class="st1" points="130.7,40.1 132.8,40.1 133.3,38.1 131.1,38.1  "/>
	<path id="XMLID_14_" class="st1" d="M145.7,32c-0.6,0-1.1,0.1-1.6,0.4c-0.5,0.3-0.9,0.6-1.2,1c-0.1-0.4-0.3-0.8-0.6-1   c-0.3-0.3-0.8-0.4-1.4-0.4c-0.9,0-1.7,0.4-2.5,1.2l0.2-1h-2l-1.7,8h2.2l0.8-3.7c0.1-0.6,0.2-1,0.3-1.2c0.1-0.4,0.3-0.7,0.5-0.9   c0.2-0.2,0.4-0.4,0.7-0.6c0.3-0.1,0.5-0.2,0.7-0.2c0.2,0,0.4,0.1,0.6,0.2c0.1,0.1,0.2,0.3,0.2,0.5c0,0.2-0.1,0.5-0.2,1.1l-1,4.8   h2.2l0.8-3.6c0.2-1,0.5-1.8,0.8-2.2c0.4-0.6,0.9-0.9,1.4-0.9c0.3,0,0.5,0.1,0.6,0.2c0.1,0.1,0.2,0.3,0.2,0.5c0,0.1-0.1,0.4-0.2,1   l-1,4.9h2.2l1-4.9c0.1-0.7,0.2-1.2,0.2-1.4c0-0.6-0.2-1-0.5-1.4C146.8,32.1,146.3,32,145.7,32z"/>
	<path id="XMLID_51_" class="st1" d="M153.4,32c-1.5,0-2.7,0.6-3.5,1.7c-0.6,0.9-0.9,1.8-0.9,2.9c0,1.1,0.3,2,1,2.7   c0.7,0.7,1.5,1,2.6,1c0.8,0,1.5-0.2,2.1-0.6c0.6-0.4,1.1-1,1.5-1.7l-1.9-0.3c-0.4,0.7-1,1.1-1.7,1.1c-0.4,0-0.8-0.2-1.1-0.5   c-0.3-0.3-0.5-0.8-0.5-1.3c0,0,0-0.1,0-0.2h5.4c0.1-0.4,0.2-0.9,0.2-1.4c0-1.1-0.3-1.9-0.9-2.5C155.1,32.3,154.3,32,153.4,32z    M154.6,35.5h-3.4c0.1-0.7,0.4-1.2,0.7-1.5c0.3-0.3,0.7-0.5,1.2-0.5c0.4,0,0.8,0.1,1.1,0.4c0.3,0.3,0.4,0.7,0.4,1.3   C154.6,35.3,154.6,35.4,154.6,35.5z"/>
	<path id="XMLID_11_" class="st0" d="M113.1,16.6c0,1.4-1.1,2.5-2.5,2.5l0,0c-1.4,0-2.5-1.1-2.5-2.5l0,0c0-1.4,1.1-2.5,2.5-2.5l0,0   C112,14.1,113.1,15.2,113.1,16.6L113.1,16.6z"/>
	<path id="XMLID_10_" class="st0" d="M126.5,26c-0.1,0-0.2,0-0.3,0c-0.9-0.2-1.5-1-1.3-1.9l2.1-12.2c0.2-0.9,1-1.5,1.9-1.3   c0.9,0.2,1.5,1,1.3,1.9l-2.1,12.2C128,25.5,127.3,26,126.5,26z"/>
	<path id="XMLID_9_" class="st0" d="M117.5,26c-0.1,0-0.2,0-0.3,0c-0.9-0.2-1.5-1-1.3-1.9l0-0.1l2-11.4c0,0,0,0,0,0   c0.6-3.3,3.6-5.9,6.9-5.9c1.7,0,3.2,0.7,4.2,1.9c1,1.2,1.4,2.9,1.1,4.6c-0.2,0.9-1,1.5-1.9,1.3c-0.9-0.2-1.5-1-1.3-1.9   c0.1-0.7,0-1.4-0.4-1.9c-0.4-0.5-1-0.7-1.7-0.7c-1.7,0-3.4,1.4-3.7,3.1l-2,11.5C119,25.5,118.3,26,117.5,26z"/>
	<path id="XMLID_8_" class="st0" d="M135.5,26c-0.1,0-0.2,0-0.3,0c-0.9-0.2-1.5-1-1.3-1.9l2-11.5c0.1-0.7,0-1.4-0.4-1.9   c-0.4-0.5-1-0.7-1.7-0.7c-1.7,0-3.4,1.4-3.7,3.1c-0.2,0.9-1,1.5-1.9,1.3c-0.9-0.2-1.5-1-1.3-1.9c0.6-3.3,3.6-5.9,6.9-5.9   c1.7,0,3.2,0.7,4.2,1.9c1,1.2,1.4,2.9,1.1,4.6l0,0c0,0,0,0,0,0l-2,11.5C137,25.5,136.3,26,135.5,26z"/>
	<path id="XMLID_44_" class="st0" d="M158.2,17.8h-16.6c-0.5,0-1-0.2-1.3-0.6c-0.3-0.4-0.4-0.9-0.4-1.4c0.9-5.3,6.1-9.7,11.4-9.7   c2.7,0,5.1,1.1,6.7,3c1.6,2,2.3,4.5,1.8,7.3C159.7,17.2,159,17.8,158.2,17.8z M143.8,14.5h12.8c0-1.2-0.4-2.3-1.2-3.2   c-1-1.2-2.4-1.8-4.1-1.8C148.2,9.5,145.2,11.6,143.8,14.5z"/>
	<path id="XMLID_5_" class="st0" d="M148.5,25.8c-2.7,0-5.1-1.1-6.7-3c-1.6-2-2.3-4.5-1.8-7.3c0.2-0.9,1-1.5,1.9-1.3   c0.9,0.2,1.5,1,1.3,1.9c-0.3,1.8,0.1,3.4,1.1,4.6c1,1.2,2.4,1.8,4.1,1.8c2.2,0,4.6-1.1,6.2-3c0.6-0.7,1.7-0.8,2.3-0.2   c0.7,0.6,0.8,1.7,0.2,2.3C154.9,24.3,151.7,25.8,148.5,25.8z"/>
	<path id="XMLID_4_" class="st0" d="M41.8,37.8c0,2.6-2.1,4.6-4.6,4.6H4.6c-2.6,0-4.6-2.1-4.6-4.6V5.3c0-2.6,2.1-4.6,4.6-4.6h32.5   c2.6,0,4.6,2.1,4.6,4.6V37.8z"/>
	<g id="XMLID_37_">
		<path id="XMLID_3_" class="st2" d="M21.3,16.9c-2,0-3.6,1.6-3.6,3.6c0,2,1.6,3.6,3.6,3.6c2,0,3.6-1.7,3.6-3.6    C25,18.5,23.4,16.9,21.3,16.9z"/>
		<path id="XMLID_38_" class="st2" d="M24.4,10.5l0.3-1.9c0.2-1-0.5-1.8-1.4-2c-0.9-0.2-1.7,0.4-1.9,1.2c0,0.1,0,0.2-0.1,0.2    l-0.4,2.4C9.9,11.1,4.8,20,4.8,20s3.4,8.2,12.7,9.8l-1.1,6.5c-0.2,1,0.5,1.9,1.5,2c0.9,0.2,1.8-0.5,2-1.4L21,30h0.3    c10.4-0.4,16.5-9.6,16.5-9.6S34.2,11.6,24.4,10.5z M21.3,26.9h-1C12.6,26.6,9.9,20,9.9,20s3.6-6.1,11.4-6.4h0.4    c8-0.1,11,6.7,11,6.7S28.5,26.6,21.3,26.9z"/>
	</g>
</g>
</svg>